<svg xmlns="http://www.w3.org/2000/svg" viewBox="0 0 166.3 166.3"><path d="M83.1 112.9c16.4 0 29.7-13.3 29.7-29.7S99.5 53.5 83.1 53.5 53.4 66.8 53.4 83.2s13.3 29.7 29.7 29.7zm-34.3 0c-16.4 0-29.7-13.3-29.7-29.7s13.3-29.7 29.7-29.7v59.4zm68.7 32.8v-28.2h28.2c0 15.6-12.7 28.2-28.2 28.2zM48.8 20.6v28.2H20.5c.1-15.5 12.7-28.2 28.3-28.2m0 125.1v-28.2H20.6c0 15.6 12.6 28.2 28.2 28.2zm103-37V57.6c8.7 5.2 14.5 14.7 14.5 25.5 0 10.9-5.8 20.4-14.5 25.6zM57.6 14.5h51.1C103.5 5.8 94 0 83.2 0 72.3 0 62.8 5.8 57.6 14.5zm50.7 137.3H57.2c5.2 8.7 14.7 14.5 25.5 14.5 10.9 0 20.4-5.8 25.6-14.5zm4.6-34.3c0 16.4-13.3 29.7-29.7 29.7s-29.7-13.3-29.7-29.7h59.4zm4.6-4.6c16.4 0 29.7-13.3 29.7-29.7s-13.3-29.7-29.7-29.7v59.4zm-4.6-64c0-16.4-13.3-29.7-29.7-29.7S53.5 32.5 53.5 48.9h59.4zm-98.4 59.8V57.6C5.8 62.8 0 72.3 0 83.2c0 10.8 5.8 20.3 14.5 25.5zm131.2-59.8h-28.2V20.7c15.5-.1 28.2 12.6 28.2 28.2" fill="#EB202F"/></svg>